# xmcd CD database file
#
# Track frame offsets:
#	150
#	21351
#	40711
#	62793
#	79632
#	96822
#	113107
#	129113
#	144876
#	162886
#	183235
#	201109
#	225737
#	248242
#	267209
#	287211
#	305797
#	322283
#
# Disc length: 4541 seconds
#
# Revision: 0
# Processed by: cddbd v1.5.2PL0 Copyright (c) Steve Scherf et al.
# Submitted via: CDex 1.51
#
DISCID=fa11bb12
DTITLE=Various Artist - ZMPB-CD-5
DYEAR=1900
DGENRE=Blues
TTITLE0=Fun - Some Nights
TTITLE1=Gotye Ft Kimbra - Somebody That I Used To Know
TTITLE2=Adele - Someone Like You
TTITLE3=Nicki Minaj - Starships
TTITLE4=Shakespear's Sister - Stay
TTITLE5=Example - Stay Awake
TTITLE6=Nicki Minaj - Super Bass
TTITLE7=Cher Lloyd - Swagger Jagger
TTITLE8=Katy Perry - Teenage Dream
TTITLE9=Ed Sheeran The A Team
TTITLE10=Miley Cyrus - The Climb
TTITLE11=Lady Gaga - The Edge Of Glory
TTITLE12=Take That - The Flood
TTITLE13=The Script - The Man Who Can't Be Moved
TTITLE14=The Black Eyed Peas - The Time (dirty bit)
TTITLE15=David Guetta Ft Sia - Titanium
TTITLE16=Cover Drive - Twilight (duet)
TTITLE17=Rihanna - Umbrella (no rap version)
EXTD=
EXTT0=
EXTT1=
EXTT2=
EXTT3=
EXTT4=
EXTT5=
EXTT6=
EXTT7=
EXTT8=
EXTT9=
EXTT10=
EXTT11=
EXTT12=
EXTT13=
EXTT14=
EXTT15=
EXTT16=
EXTT17=
PLAYORDER=
